# xmcd
#
# Track frame offsets: 
#        150
#        35787
#        61737
#        95462
#        141662
#        162937
#        179762
#        228825
#        245012
#        292387
#
# Disc length: 4166 seconds
#
# Revision: 1
# Processed by: cddbd v1.5.2PL0 Copyright (c) Steve Scherf et al.
# Submitted via: ExactAudioCopyFreeDBPlugin 1.0
#
DISCID=9c10440a
DTITLE=Irène Schweizer and Han Bennink - Piano and Drums
DYEAR=1995
DGENRE=Jazz
TTITLE0=Gnash
TTITLE1=Verzweigelt
TTITLE2=TRAPS I
TTITLE3=Eine andere Partie Tischtennis
TTITLE4=STROEF
TTITLE5=Just You, Just Me
TTITLE6=Zunderobsi
TTITLE7=Just a Gigolo (for Edith!)
TTITLE8=Donnerwetter
TTITLE9=Hackensack
EXTD=YEAR: 1995
EXTT0=
EXTT1=
EXTT2=
EXTT3=
EXTT4=
EXTT5=
EXTT6=
EXTT7=
EXTT8=
EXTT9=
PLAYORDER=
